<?xml version="1.0" encoding="UTF-8"?>
<svg width="75px" height="87px" viewBox="0 0 75 87" version="1.1" xmlns="http://www.w3.org/2000/svg" xmlns:xlink="http://www.w3.org/1999/xlink">
    <title>Group</title>
    <g id="Page-1" stroke="none" stroke-width="1" fill="none" fill-rule="evenodd">
        <g id="1816980" transform="translate(-120.300000, -395.700000)" fill-rule="nonzero">
            <g id="Group" transform="translate(121.000000, 396.287321)">
                <path d="M69.7,24.3126793 L65.4,1.21267927 C65.3,0.412679274 64.4,-0.0873207259 63.7,0.0126792741 L40.6,4.31267927 C40,4.41267927 39.5,4.91267927 39.4,5.51267927 C39.3,6.11267927 39.5,6.71267927 40,7.01267927 L50.4,14.1126793 L42.3,25.8126793 L28.7,16.5126793 C26.9,15.3126793 24.4,15.7126793 23.1,17.5126793 L5.1,43.8126793 C3.9,45.6126793 4.3,48.1126793 6.1,49.4126793 C7.9,50.6126793 10.4,50.2126793 11.7,48.4126793 L27.5,25.4126793 L41.1,34.7126793 C42.9,35.9126793 45.4,35.5126793 46.7,33.7126793 L57,18.7126793 L67.4,25.8126793 C67.9,26.1126793 68.6,26.2126793 69.1,25.8126793 C69.6,25.5126793 69.8,24.9126793 69.7,24.3126793 Z" id="Path" fill="#33479D"></path>
                <path d="M9.9,47.0126793 L26.5,22.8126793 C26.8,22.3126793 27.4,22.2126793 27.9,22.5126793 L42.7,32.7126793 C43,32.9126793 43.4,33.0126793 43.8,32.9126793 C44.2,32.8126793 44.5,32.6126793 44.8,32.3126793 L56,16.0126793 C56.1,15.8126793 56.4,15.6126793 56.6,15.6126793 C56.9,15.6126793 57.1,15.6126793 57.3,15.8126793 L66.9,22.4126793 L63.2,2.71267927 L43.5,6.41267927 L53.1,13.0126793 C53.6,13.3126793 53.7,13.9126793 53.4,14.4126793 L43.6,28.6126793 C43.5,28.8126793 43.2,29.0126793 43,29.0126793 C42.7,29.0126793 42.5,29.0126793 42.3,28.8126793 L27.5,18.6126793 C27.2,18.4126793 26.9,18.3126793 26.7,18.3126793 C26.2,18.3126793 25.8,18.5126793 25.5,19.0126793 L7.5,45.3126793 C7,46.0126793 7.2,46.9126793 7.9,47.4126793 C8.5,47.9126793 9.4,47.7126793 9.9,47.0126793 Z" id="Path" fill="#FFFFFF"></path>
                <g transform="translate(0.000000, 28.012679)" id="Shape">
                    <path d="M12.2,58.4 L3.6,58.4 C1.6,58.4 -2.84217094e-14,56.8 -2.84217094e-14,54.8 L-2.84217094e-14,30.2 C-2.84217094e-14,28.2 1.6,26.6 3.6,26.6 L12.2,26.6 C14.2,26.6 15.8,28.2 15.8,30.2 L15.8,54.8 C15.7,56.8 14.1,58.4 12.2,58.4 Z M3.5,28.7 C2.6,28.7 1.9,29.4 1.9,30.3 L1.9,54.9 C1.9,55.8 2.6,56.5 3.5,56.5 L12.1,56.5 C13,56.5 13.7,55.8 13.7,54.9 L13.7,30.3 C13.7,29.4 13,28.7 12.1,28.7 L3.5,28.7 L3.5,28.7 Z" fill="#58595B"></path>
                    <path d="M31.7,58.4 L23.1,58.4 C21.1,58.4 19.5,56.8 19.5,54.8 L19.5,14.1 C19.5,12.1 21.1,10.5 23.1,10.5 L31.7,10.5 C33.7,10.5 35.3,12.1 35.3,14.1 L35.3,54.8 C35.2,56.8 33.6,58.4 31.7,58.4 Z M23,12.6 C22.1,12.6 21.4,13.3 21.4,14.2 L21.4,54.9 C21.4,55.8 22.1,56.5 23,56.5 L31.6,56.5 C32.5,56.5 33.2,55.8 33.2,54.9 L33.2,14.2 C33.2,13.3 32.5,12.6 31.6,12.6 L23,12.6 Z" fill="#33479D"></path>
                    <path d="M51.2,58.4 L42.6,58.4 C40.6,58.4 39,56.8 39,54.8 L39,20.3 C39,18.3 40.6,16.7 42.6,16.7 L51.2,16.7 C53.2,16.7 54.8,18.3 54.8,20.3 L54.8,54.8 C54.7,56.8 53.1,58.4 51.2,58.4 Z M42.5,18.8 C41.6,18.8 40.9,19.5 40.9,20.4 L40.9,54.9 C40.9,55.8 41.6,56.5 42.5,56.5 L51.1,56.5 C52,56.5 52.7,55.8 52.7,54.9 L52.7,20.4 C52.7,19.5 52,18.8 51.1,18.8 L42.5,18.8 Z" fill="#58595B"></path>
                    <path d="M70.7,58.4 L62.1,58.4 C60.1,58.4 58.5,56.8 58.5,54.8 L58.5,3.6 C58.5,1.6 60.1,5.68434189e-14 62.1,5.68434189e-14 L70.7,5.68434189e-14 C72.7,5.68434189e-14 74.3,1.6 74.3,3.6 L74.3,54.8 C74.2,56.8 72.6,58.4 70.7,58.4 Z M62,2.1 C61.1,2.1 60.4,2.8 60.4,3.7 L60.4,54.9 C60.4,55.8 61.1,56.5 62,56.5 L70.6,56.5 C71.5,56.5 72.2,55.8 72.2,54.9 L72.2,3.7 C72.2,2.8 71.5,2.1 70.6,2.1 L62,2.1 Z" fill="#33479D"></path>
                </g>
                <path d="M72.8,48.4126793 L67,48.4126793 C66.4,48.4126793 66,48.0126793 66,47.4126793 C66,46.8126793 66.4,46.4126793 67,46.4126793 L72.8,46.4126793 C73.4,46.4126793 73.8,46.8126793 73.8,47.4126793 C73.8,48.0126793 73.4,48.4126793 72.8,48.4126793 Z" id="Path" fill="#33479D"></path>
                <path d="M72.8,43.5126793 L65.1,43.5126793 C64.5,43.5126793 64.1,43.1126793 64.1,42.5126793 C64.1,41.9126793 64.5,41.5126793 65.1,41.5126793 L72.8,41.5126793 C73.4,41.5126793 73.8,41.9126793 73.8,42.5126793 C73.8,43.1126793 73.4,43.5126793 72.8,43.5126793 Z" id="Path" fill="#33479D"></path>
                <path d="M72.8,38.2126793 L62.9,38.2126793 C62.3,38.2126793 61.9,37.8126793 61.9,37.2126793 C61.9,36.6126793 62.3,36.2126793 62.9,36.2126793 L72.8,36.2126793 C73.4,36.2126793 73.8,36.6126793 73.8,37.2126793 C73.8,37.8126793 73.4,38.2126793 72.8,38.2126793 Z" id="Path" fill="#33479D"></path>
                <path d="M53.7,65.2126793 L47.9,65.2126793 C47.3,65.2126793 46.9,64.8126793 46.9,64.2126793 C46.9,63.6126793 47.3,63.2126793 47.9,63.2126793 L53.7,63.2126793 C54.3,63.2126793 54.7,63.6126793 54.7,64.2126793 C54.7,64.8126793 54.3,65.2126793 53.7,65.2126793 Z" id="Path" fill="#58595B"></path>
                <path d="M53.7,60.2126793 L46,60.2126793 C45.4,60.2126793 45,59.8126793 45,59.2126793 C45,58.6126793 45.4,58.2126793 46,58.2126793 L53.7,58.2126793 C54.3,58.2126793 54.7,58.6126793 54.7,59.2126793 C54.7,59.8126793 54.3,60.2126793 53.7,60.2126793 Z" id="Path" fill="#58595B"></path>
                <path d="M53.7,55.0126793 L43.8,55.0126793 C43.2,55.0126793 42.8,54.6126793 42.8,54.0126793 C42.8,53.4126793 43.2,53.0126793 43.8,53.0126793 L53.7,53.0126793 C54.3,53.0126793 54.7,53.4126793 54.7,54.0126793 C54.7,54.6126793 54.3,55.0126793 53.7,55.0126793 Z" id="Path" fill="#58595B"></path>
                <path d="M34.2,56.7126793 L28.4,56.7126793 C27.8,56.7126793 27.4,56.3126793 27.4,55.7126793 C27.4,55.1126793 27.8,54.7126793 28.4,54.7126793 L34.2,54.7126793 C34.8,54.7126793 35.2,55.1126793 35.2,55.7126793 C35.2,56.2126793 34.8,56.7126793 34.2,56.7126793 Z" id="Path" fill="#33479D"></path>
                <path d="M34.2,51.7126793 L26.5,51.7126793 C25.9,51.7126793 25.5,51.3126793 25.5,50.7126793 C25.5,50.1126793 25.9,49.7126793 26.5,49.7126793 L34.2,49.7126793 C34.8,49.7126793 35.2,50.1126793 35.2,50.7126793 C35.2,51.3126793 34.8,51.7126793 34.2,51.7126793 Z" id="Path" fill="#33479D"></path>
                <path d="M34.2,46.4126793 L24.3,46.4126793 C23.7,46.4126793 23.3,46.0126793 23.3,45.4126793 C23.3,44.8126793 23.7,44.4126793 24.3,44.4126793 L34.2,44.4126793 C34.8,44.4126793 35.2,44.8126793 35.2,45.4126793 C35.2,46.0126793 34.8,46.4126793 34.2,46.4126793 Z" id="Path" fill="#33479D"></path>
                <path d="M14.7,70.9126793 L8.9,70.9126793 C8.3,70.9126793 7.9,70.5126793 7.9,69.9126793 C7.9,69.3126793 8.3,68.9126793 8.9,68.9126793 L14.7,68.9126793 C15.3,68.9126793 15.7,69.3126793 15.7,69.9126793 C15.7,70.4126793 15.3,70.9126793 14.7,70.9126793 Z" id="Path" fill="#58595B"></path>
                <path d="M14.7,65.9126793 L7,65.9126793 C6.4,65.9126793 6,65.5126793 6,64.9126793 C6,64.3126793 6.4,63.9126793 7,63.9126793 L14.7,63.9126793 C15.3,63.9126793 15.7,64.3126793 15.7,64.9126793 C15.7,65.4126793 15.3,65.9126793 14.7,65.9126793 Z" id="Path" fill="#58595B"></path>
                <path d="M14.7,60.6126793 L4.8,60.6126793 C4.2,60.6126793 3.8,60.2126793 3.8,59.6126793 C3.8,59.0126793 4.2,58.6126793 4.8,58.6126793 L14.7,58.6126793 C15.3,58.6126793 15.7,59.0126793 15.7,59.6126793 C15.7,60.2126793 15.3,60.6126793 14.7,60.6126793 Z" id="Path" fill="#58595B"></path>
            </g>
        </g>
    </g>
</svg>