<?xml version="1.0" encoding="UTF-8"?>
<svg width="81px" height="82px" viewBox="0 0 81 82" version="1.1" xmlns="http://www.w3.org/2000/svg" xmlns:xlink="http://www.w3.org/1999/xlink">
    <title>Group</title>
    <g id="Page-1" stroke="none" stroke-width="1" fill="none" fill-rule="evenodd">
        <g id="1816980" transform="translate(-228.300000, -267.700000)" fill-rule="nonzero">
            <g id="Group" transform="translate(228.400000, 268.400000)">
                <g>
                    <circle id="Oval" fill="#FFFFFF" cx="40.4" cy="40.4" r="38.9"></circle>
                    <path d="M40.4,80.8 C18.1,80.8 0,62.7 0,40.4 C0,18.1 18.1,0 40.4,0 C62.7,0 80.8004101,18.1 80.8004101,40.4 C80.9,62.7 62.7,80.8 40.4,80.8 Z M40.4,3 C19.8,3 3,19.8 3,40.4 C3,61 19.8,77.8 40.4,77.8 C61,77.8 77.8004441,61 77.8004441,40.4 C77.9,19.7 61.1,3 40.4,3 Z" id="Shape" fill="#58595B"></path>
                </g>
                <g transform="translate(6.300000, 6.300000)">
                    <circle id="Oval" fill="#FFFFFF" cx="34.1" cy="34.1" r="32.6"></circle>
                    <path d="M34.1,68.2 C15.3,68.2 0,52.9 0,34.1 C0,15.3 15.3,0 34.1,0 C52.9,0 68.2004874,15.3 68.2004874,34.1 C68.3,52.9 53,68.2 34.1,68.2 Z M34.1,3 C16.9,3 3,17 3,34.1 C3,51.3 17,65.2 34.1,65.2 C51.3,65.2 65.2005324,51.2 65.2005324,34.1 C65.3,16.9 51.3,3 34.1,3 Z" id="Shape" fill="#27AAE1"></path>
                </g>
                <g transform="translate(39.400000, 10.200000)" fill="#27AAE1" id="Path">
                    <path d="M1,6.9 C0.4,6.9 0,6.5 0,5.9 L0,1 C0,0.4 0.4,-5.68434189e-14 1,-5.68434189e-14 C1.6,-5.68434189e-14 2,0.4 2,1 L2,5.9 C2,6.5 1.6,6.9 1,6.9 Z"></path>
                    <path d="M1,60.1 C0.4,60.1 0,59.7 0,59.1 L0,54.2 C0,53.6 0.4,53.2 1,53.2 C1.6,53.2 2,53.6 2,54.2 L2,59.1 C2,59.7 1.6,60.1 1,60.1 Z"></path>
                </g>
                <g transform="translate(10.400000, 39.200000)" fill="#27AAE1" id="Path">
                    <path d="M59.1,2 L54.2,2 C53.6,2 53.2,1.6 53.2,1 C53.2,0.4 53.6,0 54.2,0 L59.1,0 C59.7,0 60.1,0.4 60.1,1 C60.1,1.6 59.6,2 59.1,2 Z"></path>
                    <path d="M5.9,2 L1,2 C0.4,2 0,1.6 0,1 C0,0.4 0.4,0 1,0 L5.9,0 C6.5,0 6.9,0.4 6.9,1 C6.9,1.6 6.5,2 5.9,2 Z"></path>
                </g>
                <circle id="Oval" fill="#58595B" cx="40.4" cy="40.4" r="4.3"></circle>
                <g transform="translate(33.238296, 20.038296)" id="Path">
                    <line x1="7.06170448" y1="20.7617045" x2="1.16170448" y2="0.96170448" fill="#FFFFFF"></line>
                    <path d="M7.06170448,21.7617045 C6.66170448,21.7617045 6.26170448,21.4617045 6.06170448,21.0617045 L0.0617044797,1.26170448 C-0.13829552,0.76170448 0.16170448,0.16170448 0.76170448,0.0617044797 C1.26170448,-0.13829552 1.86170448,0.16170448 1.96170448,0.76170448 L7.96170448,20.5617045 C8.16170448,21.0617045 7.86170448,21.6617045 7.26170448,21.7617045 C7.26170448,21.6617045 7.16170448,21.7617045 7.06170448,21.7617045 Z" fill="#58595B"></path>
                </g>
                <g transform="translate(39.238296, 36.838296)" id="Path">
                    <line x1="1.06170448" y1="3.96170448" x2="10.9617045" y2="0.96170448" fill="#FFFFFF"></line>
                    <path d="M1.06170448,4.96170448 C0.66170448,4.96170448 0.26170448,4.66170448 0.0617044797,4.26170448 C-0.13829552,3.76170448 0.16170448,3.16170448 0.76170448,3.06170448 L10.6617045,0.0617044797 C11.1617045,-0.13829552 11.7617045,0.16170448 11.8617045,0.76170448 C12.0617045,1.26170448 11.7617045,1.86170448 11.1617045,1.96170448 L1.26170448,4.96170448 C1.26170448,4.86170448 1.16170448,4.96170448 1.06170448,4.96170448 Z" fill="#58595B"></path>
                </g>
                <g transform="translate(52.400000, 14.100000)" fill="#27AAE1" id="Path">
                    <path d="M9.1,2 L1,2 C0.4,2 0,1.6 0,1 C0,0.4 0.4,5.68434189e-14 1,5.68434189e-14 L9.1,5.68434189e-14 C9.7,5.68434189e-14 10.1,0.4 10.1,1 C10.1,1.5 9.7,2 9.1,2 Z"></path>
                    <path d="M12.9,6.8 L4.8,6.8 C4.2,6.8 3.8,6.4 3.8,5.8 C3.8,5.2 4.2,4.8 4.8,4.8 L12.9,4.8 C13.5,4.8 13.9,5.2 13.9,5.8 C13.9,6.4 13.5,6.8 12.9,6.8 Z"></path>
                    <path d="M17.2,11.7 L9.1,11.7 C8.5,11.7 8.1,11.3 8.1,10.7 C8.1,10.1 8.5,9.7 9.1,9.7 L17.2,9.7 C17.8,9.7 18.2,10.1 18.2,10.7 C18.2,11.3 17.8,11.7 17.2,11.7 Z"></path>
                </g>
            </g>
        </g>
    </g>
</svg>