<?xml version="1.0" encoding="UTF-8"?>
<svg width="87px" height="83px" viewBox="0 0 87 83" version="1.1" xmlns="http://www.w3.org/2000/svg" xmlns:xlink="http://www.w3.org/1999/xlink">
    <title>Group</title>
    <g id="Page-1" stroke="none" stroke-width="1" fill="none" fill-rule="evenodd">
        <g id="1816980" transform="translate(-1.300000, -136.700000)" fill-rule="nonzero">
            <g id="Group" transform="translate(2.059046, 136.700000)">
                <g transform="translate(0.000000, 11.000000)">
                    <path d="M67.040954,41 L63.040954,39.6 C63.240954,38.4 63.340954,37.1 63.340954,35.8 C63.340954,35.3 63.340954,34.9 63.340954,34.4 L67.440954,33.3 C68.840954,32.9 69.740954,31.4 69.340954,30 L67.640954,23.8 C67.240954,22.4 65.740954,21.5 64.340954,21.9 L60.240954,23 C59.440954,21.5 58.540954,20 57.440954,18.6 L60.140954,15.4 C61.140954,14.3 60.940954,12.6 59.840954,11.6 L54.940954,7.5 C53.840954,6.5 52.140954,6.7 51.140954,7.8 L48.440954,11 C46.240954,9.8 43.840954,8.9 41.240954,8.4 L41.240954,4.2 C41.240954,2.7 40.040954,1.5 38.540954,1.5 L32.240954,1.5 C30.740954,1.5 29.540954,2.7 29.540954,4.2 L29.540954,8.4 C27.840954,8.8 26.140954,9.3 24.640954,10 L22.240954,6.6 C21.340954,5.4 19.740954,5.1 18.440954,5.9 L13.140954,9.6 C11.940954,10.5 11.640954,12.1 12.440954,13.4 L14.840954,16.8 C13.640954,18.1 12.640954,19.4 11.640954,20.9 L7.740954,19.5 C6.340954,19 4.840954,19.7 4.240954,21.1 L2.040954,27.1 C1.540954,28.5 2.240954,30 3.640954,30.6 L7.540954,32 C7.340954,33.2 7.240954,34.5 7.240954,35.8 C7.240954,36.3 7.240954,36.7 7.240954,37.2 L3.140954,38.3 C1.740954,38.7 0.840953996,40.2 1.240954,41.6 L2.940954,47.8 C3.340954,49.2 4.840954,50.1 6.240954,49.7 L10.340954,48.6 C11.140954,50.1 12.040954,51.6 13.140954,53 L10.440954,56.2 C9.440954,57.3 9.640954,59 10.740954,60 L15.640954,64.1 C16.740954,65.1 18.440954,64.9 19.440954,63.8 L22.140954,60.6 C24.340954,61.8 26.740954,62.7 29.340954,63.2 L29.340954,67.4 C29.340954,68.9 30.540954,70.1 32.040954,70.1 L38.440954,70.1 C39.940954,70.1 41.140954,68.9 41.140954,67.4 L41.140954,63.2 C42.840954,62.8 44.540954,62.3 46.040954,61.6 L48.440954,65 C49.340954,66.2 50.940954,66.5 52.240954,65.7 L57.540954,62 C58.740954,61.1 59.040954,59.5 58.240954,58.2 L55.840954,54.8 C57.040954,53.5 58.040954,52.2 59.040954,50.7 L62.940954,52.1 C64.340954,52.6 65.840954,51.9 66.440954,50.5 L68.640954,44.5 C69.240954,43.1 68.440954,41.5 67.040954,41 Z" id="Path" fill="#FFFFFF"></path>
                    <path d="M38.640954,71.5 L32.240954,71.5 C29.940954,71.5 28.040954,69.6 28.040954,67.3 L28.040954,64.3 C26.240954,63.8 24.440954,63.2 22.740954,62.4 L20.840954,64.7 C19.340954,66.5 16.740954,66.7 14.940954,65.2 L10.040954,61.1 C8.240954,59.6 8.040954,57 9.540954,55.2 L11.440954,52.9 C10.840954,52.1 10.340954,51.2 9.840954,50.3 L6.940954,51.1 C4.740954,51.7 2.440954,50.4 1.840954,48.1 L0.140953996,41.9 C-0.159046004,40.8 0.0409539964,39.7 0.540953996,38.7 C1.140954,37.7 2.040954,37 3.040954,36.7 L5.940954,35.9 C5.940954,35.8 5.940954,35.7 5.940954,35.7 C5.940954,34.8 5.940954,33.8 6.040954,32.9 L3.240954,31.9 C2.140954,31.5 1.340954,30.7 0.840953996,29.7 C0.340953996,28.7 0.340953996,27.5 0.740953996,26.5 L2.940954,20.5 C3.340954,19.4 4.140954,18.6 5.140954,18.1 C6.140954,17.6 7.340954,17.6 8.340954,18 L11.140954,19 C11.740954,18.2 12.340954,17.4 12.940954,16.6 L11.240954,14.1 C10.640954,13.2 10.340954,12.1 10.540954,11 C10.740954,9.9 11.340954,8.9 12.240954,8.3 L17.540954,4.6 C19.440954,3.3 22.040954,3.7 23.340954,5.6 L25.040954,8.1 C25.940954,7.7 26.940954,7.4 27.940954,7.2 L27.940954,4.2 C27.940954,1.9 29.840954,0 32.140954,0 L38.540954,0 C40.840954,0 42.740954,1.9 42.740954,4.2 L42.740954,7.2 C44.540954,7.7 46.340954,8.3 48.040954,9.1 L49.940954,6.8 C51.440954,5 54.040954,4.8 55.840954,6.3 L60.740954,10.4 C62.540954,11.9 62.740954,14.5 61.240954,16.3 L59.340954,18.6 C59.940954,19.4 60.440954,20.3 60.940954,21.2 L63.840954,20.4 C64.940954,20.1 66.040954,20.3 67.040954,20.8 C68.040954,21.4 68.740954,22.3 69.040954,23.3 L70.740954,29.5 C71.040954,30.6 70.840954,31.7 70.340954,32.7 C69.740954,33.7 68.840954,34.4 67.840954,34.7 L64.940954,35.5 C64.940954,35.6 64.940954,35.7 64.940954,35.7 C64.940954,36.6 64.940954,37.6 64.840954,38.5 L67.640954,39.5 C68.740954,39.9 69.540954,40.7 70.040954,41.7 C70.540954,42.7 70.540954,43.9 70.140954,44.9 L67.940954,50.9 C67.140954,53.1 64.740954,54.2 62.540954,53.4 L59.740954,52.4 C59.140954,53.2 58.540954,54 57.940954,54.8 L59.640954,57.3 C60.940954,59.2 60.540954,61.8 58.640954,63.1 L53.340954,66.8 C52.440954,67.4 51.340954,67.7 50.240954,67.5 C49.140954,67.3 48.140954,66.7 47.540954,65.8 L45.840954,63.3 C44.940954,63.7 43.940954,64 42.940954,64.2 L42.940954,67.2 C42.840954,69.6 40.940954,71.5 38.640954,71.5 Z M22.340954,59 C22.540954,59 22.840954,59.1 23.040954,59.2 C25.140954,60.3 27.440954,61.2 29.840954,61.7 C30.540954,61.8 31.040954,62.5 31.040954,63.2 L31.040954,67.4 C31.040954,68.1 31.540954,68.6 32.240954,68.6 L38.640954,68.6 C39.340954,68.6 39.840954,68.1 39.840954,67.4 L39.840954,63.2 C39.840954,62.5 40.340954,61.9 41.040954,61.7 C42.640954,61.4 44.240954,60.9 45.740954,60.2 C46.440954,59.9 47.140954,60.1 47.540954,60.7 L49.940954,64.1 C50.140954,64.4 50.440954,64.5 50.740954,64.6 C51.040954,64.7 51.340954,64.6 51.640954,64.4 L56.940954,60.7 C57.440954,60.3 57.640954,59.6 57.240954,59 L54.840954,55.6 C54.440954,55 54.440954,54.2 54.940954,53.7 C56.040954,52.5 57.040954,51.2 57.940954,49.8 C58.340954,49.2 59.040954,48.9 59.740954,49.2 L63.640954,50.6 C63.940954,50.7 64.240954,50.7 64.540954,50.6 C64.840954,50.5 65.040954,50.2 65.140954,49.9 L67.340954,43.9 C67.440954,43.6 67.440954,43.3 67.340954,43 C67.240954,42.7 66.940954,42.5 66.640954,42.4 L66.640954,42.4 L62.740954,41 C62.040954,40.8 61.640954,40.1 61.740954,39.4 C61.940954,38.2 62.040954,37 62.040954,35.8 C62.040954,35.4 62.040954,34.9 62.040954,34.5 C62.040954,33.8 62.440954,33.2 63.140954,33 L67.240954,31.9 C67.540954,31.8 67.840954,31.6 67.940954,31.3 C68.140954,31 68.140954,30.7 68.040954,30.4 L66.340954,24.2 C66.140954,23.6 65.540954,23.2 64.840954,23.4 L60.740954,24.5 C60.040954,24.7 59.340954,24.4 59.040954,23.7 C58.340954,22.2 57.440954,20.9 56.440954,19.6 C56.040954,19 56.040954,18.3 56.440954,17.7 L59.140954,14.5 C59.340954,14.3 59.440954,13.9 59.440954,13.6 C59.440954,13.3 59.240954,13 59.040954,12.8 L54.140954,8.7 C53.640954,8.3 52.840954,8.3 52.440954,8.8 L49.740954,12 C49.240954,12.5 48.540954,12.7 47.840954,12.4 C45.740954,11.3 43.440954,10.4 41.040954,9.9 C40.340954,9.8 39.840954,9.1 39.840954,8.4 L39.840954,4.2 C39.840954,3.5 39.340954,3 38.640954,3 L32.240954,3 C31.540954,3 31.040954,3.5 31.040954,4.2 L31.040954,8.4 C31.040954,9.1 30.540954,9.7 29.840954,9.9 C28.240954,10.2 26.640954,10.7 25.140954,11.4 C24.440954,11.7 23.740954,11.5 23.340954,10.9 L20.940954,7.5 C20.540954,7 19.840954,6.8 19.240954,7.2 L13.940954,10.9 C13.640954,11.1 13.540954,11.4 13.440954,11.7 C13.340954,12 13.440954,12.3 13.640954,12.6 L16.040954,16 C16.440954,16.6 16.440954,17.4 15.940954,17.9 C14.840954,19.1 13.840954,20.4 12.940954,21.8 C12.540954,22.4 11.840954,22.7 11.140954,22.4 L7.240954,21 C6.940954,20.9 6.640954,20.9 6.340954,21 C6.040954,21.1 5.840954,21.4 5.740954,21.7 L3.540954,27.7 C3.440954,28 3.440954,28.3 3.540954,28.6 C3.640954,28.9 3.940954,29.1 4.240954,29.2 L8.240954,30.6 C8.940954,30.8 9.340954,31.5 9.240954,32.2 C9.040954,33.4 8.940954,34.6 8.940954,35.8 C8.940954,36.2 8.940954,36.7 8.940954,37.1 C8.940954,37.8 8.540954,38.4 7.840954,38.6 L3.740954,39.7 C3.440954,39.8 3.140954,40 3.040954,40.3 C2.840954,40.6 2.840954,40.9 2.940954,41.2 L4.640954,47.4 C4.840954,48 5.440954,48.4 6.140954,48.2 L10.240954,47.1 C10.940954,46.9 11.640954,47.2 11.940954,47.9 C12.640954,49.4 13.540954,50.7 14.540954,52 C14.940954,52.6 14.940954,53.3 14.540954,53.9 L11.840954,57.1 C11.440954,57.6 11.440954,58.4 11.940954,58.8 L16.840954,62.9 C17.340954,63.3 18.140954,63.3 18.540954,62.8 L21.240954,59.6 C21.540954,59.2 21.940954,59 22.340954,59 Z" id="Shape" fill="#58595B"></path>
                    <g transform="translate(9.540954, 38.100000)" fill="#58595B" id="Path">
                        <path d="M11.9,7.6 L2.9,7.6 C2.3,7.6 1.9,7.2 1.9,6.6 C1.9,6 2.3,5.6 2.9,5.6 L11.9,5.6 C12.5,5.6 12.9,6 12.9,6.6 C12.9,7.2 12.5,7.6 11.9,7.6 Z"></path>
                        <path d="M17.7,13.2 L8.7,13.2 C8.1,13.2 7.7,12.8 7.7,12.2 C7.7,11.6 8.1,11.2 8.7,11.2 L17.7,11.2 C18.3,11.2 18.7,11.6 18.7,12.2 C18.7,12.8 18.3,13.2 17.7,13.2 Z"></path>
                        <path d="M10,2 L1,2 C0.4,2 0,1.6 0,1 C0,0.4 0.4,2.84217094e-14 1,2.84217094e-14 L10,2.84217094e-14 C10.6,2.84217094e-14 11,0.4 11,1 C11,1.5 10.6,2 10,2 Z"></path>
                    </g>
                    <path d="M35.440954,53.9 C25.440954,53.9 17.240954,45.8 17.240954,35.7 C17.240954,25.7 25.340954,17.5 35.440954,17.5 C45.440954,17.5 53.640954,25.6 53.640954,35.7 C53.540954,45.8 45.440954,53.9 35.440954,53.9 Z M35.440954,20.6 C27.040954,20.6 20.240954,27.4 20.240954,35.8 C20.240954,44.2 27.040954,51 35.440954,51 C43.840954,51 50.640954,44.2 50.640954,35.8 C50.540954,27.4 43.740954,20.6 35.440954,20.6 Z" id="Shape" fill="#58595B"></path>
                </g>
                <g transform="translate(44.140954, 0.000000)">
                    <path d="M38.9,23.8 L36.6,23 C36.7,22.3 36.8,21.6 36.8,20.8 C36.8,20.5 36.8,20.3 36.8,20 L39.1,19.4 C39.9,19.2 40.4,18.3 40.2,17.5 L39.2,13.9 C39,13.1 38.1,12.6 37.3,12.8 L35,13.4 C34.5,12.5 34,11.7 33.4,10.9 L35,9 C35.6,8.3 35.5,7.4 34.8,6.8 L32,4.4 C31.3,3.8 30.4,3.9 29.8,4.6 L28.2,6.5 C26.9,5.8 25.5,5.3 24.1,5 L24.1,2.6 C24.1,1.7 23.4,1 22.5,1 L18.8,1 C17.9,1 17.2,1.7 17.2,2.6 L17.2,5 C16.2,5.2 15.3,5.5 14.4,5.9 L13,3.9 C12.5,3.2 11.5,3 10.8,3.5 L7.8,5.6 C7.1,6.1 6.9,7.1 7.4,7.8 L8.8,9.8 C8.1,10.5 7.5,11.3 7,12.2 L4.7,11.4 C3.9,11.1 3,11.5 2.7,12.3 L1.4,15.8 C1.1,16.6 1.5,17.5 2.3,17.8 L4.6,18.6 C4.5,19.3 4.4,20 4.4,20.8 C4.4,21.1 4.4,21.3 4.4,21.6 L2.1,22.2 C1.3,22.4 0.8,23.3 1,24.1 L2,27.7 C2.2,28.5 3.1,29 3.9,28.8 L6.2,28.2 C6.7,29.1 7.2,29.9 7.8,30.7 L6.2,32.6 C5.6,33.3 5.7,34.2 6.4,34.8 L9.2,37.2 C9.9,37.8 10.8,37.7 11.4,37 L13,35.1 C14.3,35.8 15.7,36.3 17.1,36.6 L17.1,39 C17.1,39.9 17.8,40.6 18.7,40.6 L22.4,40.6 C23.3,40.6 24,39.9 24,39 L24,36.6 C25,36.4 25.9,36.1 26.8,35.7 L28.2,37.7 C28.7,38.4 29.7,38.6 30.4,38.1 L33.4,36 C34.1,35.5 34.3,34.5 33.8,33.8 L32.4,31.8 C33.1,31.1 33.7,30.3 34.2,29.4 L36.5,30.2 C37.3,30.5 38.2,30.1 38.5,29.3 L39.8,25.8 C40.1,25 39.7,24.1 38.9,23.8 Z" id="Path" fill="#FFFFFF"></path>
                    <path d="M22.5,41.5 L18.8,41.5 C17.4,41.5 16.2,40.4 16.2,38.9 L16.2,37.3 C15.2,37 14.3,36.7 13.3,36.3 L12.3,37.5 C11.9,38 11.2,38.3 10.6,38.4 C9.9,38.5 9.3,38.3 8.7,37.8 L5.9,35.4 C5.4,35 5.1,34.3 5,33.7 C4.9,33 5.1,32.4 5.6,31.8 L6.6,30.6 C6.3,30.2 6,29.7 5.8,29.3 L4.2,29.7 C2.8,30.1 1.4,29.3 1.1,27.9 L0.1,24.3 C-0.1,23.6 0,23 0.4,22.4 C0.7,21.8 1.3,21.4 1.9,21.2 L3.5,20.8 C3.5,20.8 3.5,20.8 3.5,20.8 C3.5,20.3 3.5,19.8 3.6,19.3 L2.1,18.7 C1.5,18.5 0.9,18 0.7,17.4 C0.4,16.8 0.4,16.1 0.6,15.4 L1.9,11.9 C2.1,11.3 2.6,10.7 3.2,10.5 C3.8,10.2 4.5,10.2 5.2,10.4 L6.7,11 C7,10.6 7.3,10.2 7.6,9.8 L6.7,8.5 C5.9,7.3 6.2,5.8 7.3,4.9 L10.3,2.8 C10.9,2.4 11.5,2.3 12.2,2.4 C12.9,2.5 13.5,2.9 13.8,3.4 L14.7,4.7 C15.2,4.5 15.7,4.4 16.2,4.2 L16.2,2.6 C16.2,1.2 17.3,0 18.8,0 L22.5,0 C23.9,0 25.1,1.1 25.1,2.6 L25.1,4.2 C26.1,4.5 27,4.8 28,5.2 L29,4 C29.4,3.5 30.1,3.2 30.7,3.1 C31.4,3 32,3.2 32.6,3.7 L35.4,6.1 C36.5,7 36.6,8.6 35.7,9.7 L34.7,10.9 C35,11.3 35.3,11.8 35.5,12.2 L37.1,11.8 C38.5,11.4 39.9,12.2 40.2,13.6 L41.2,17.2 C41.6,18.6 40.8,20 39.4,20.3 L37.8,20.7 C37.8,20.7 37.8,20.7 37.8,20.7 C37.8,21.2 37.8,21.7 37.7,22.2 L39.2,22.8 L39.2,22.8 C40.5,23.3 41.2,24.7 40.7,26.1 L39.4,29.6 C39.2,30.2 38.7,30.8 38.1,31 C37.5,31.3 36.8,31.3 36.1,31.1 L34.6,30.5 C34.3,30.9 34,31.3 33.7,31.7 L34.6,33 C35,33.6 35.1,34.2 35,34.9 C34.9,35.6 34.5,36.2 34,36.5 L31,38.6 C30.4,39 29.8,39.1 29.1,39 C28.4,38.9 27.8,38.5 27.5,38 L26.6,36.7 C26.1,36.9 25.6,37 25.1,37.2 L25.1,38.8 C25.1,40.4 23.9,41.5 22.5,41.5 Z M13.2,34 C13.4,34 13.5,34 13.7,34.1 C14.9,34.7 16.2,35.2 17.6,35.5 C18.1,35.6 18.4,36 18.4,36.5 L18.4,38.9 C18.4,39.2 18.6,39.5 19,39.5 L22.7,39.5 C23,39.5 23.3,39.3 23.3,38.9 L23.3,36.5 C23.3,36 23.6,35.6 24.1,35.5 C25,35.3 25.9,35 26.8,34.7 C27.2,34.5 27.7,34.7 28,35 L29.4,37 C29.5,37.1 29.6,37.2 29.8,37.2 C29.9,37.2 30.1,37.2 30.2,37.1 L33.2,35 C33.3,34.9 33.4,34.8 33.4,34.6 C33.4,34.5 33.4,34.3 33.3,34.2 L31.9,32.2 C31.6,31.8 31.7,31.3 32,30.9 C32.6,30.2 33.2,29.5 33.7,28.7 C34,28.3 34.4,28.1 34.9,28.3 L37.2,29.1 C37.3,29.1 37.5,29.1 37.6,29.1 C37.7,29 37.8,28.9 37.9,28.8 L39.2,25.3 C39.3,25 39.2,24.7 38.9,24.6 L36.6,23.8 C36.2,23.6 35.9,23.2 36,22.7 C36.1,22 36.1,21.3 36.1,20.6 C36.1,20.4 36.1,20.1 36.1,19.9 C36.1,19.4 36.4,19 36.8,18.9 L39.1,18.3 C39.4,18.2 39.6,17.9 39.5,17.6 L38.5,14 C38.5,13.9 38.4,13.7 38.2,13.7 C38.1,13.6 37.9,13.6 37.8,13.6 L35.5,14.2 C35,14.3 34.6,14.1 34.4,13.7 C34,12.9 33.5,12.1 32.9,11.3 C32.6,10.9 32.6,10.4 32.9,10 L34.5,8.1 C34.7,7.9 34.7,7.5 34.4,7.3 L31.6,4.9 C31.4,4.7 31,4.7 30.8,5 L29.2,6.9 C28.9,7.3 28.4,7.4 28,7.1 C26.8,6.5 25.5,6 24.1,5.7 C23.6,5.6 23.3,5.2 23.3,4.7 L23.3,2.3 C23.3,2 23.1,1.7 22.7,1.7 L19,1.7 C18.7,1.7 18.4,1.9 18.4,2.3 L18.4,4.7 C18.4,5.2 18.1,5.6 17.6,5.7 C16.7,5.9 15.8,6.2 14.9,6.5 C14.5,6.7 14,6.5 13.7,6.2 L12.3,4.2 C12.2,4.1 12.1,4 11.9,4 C11.8,4 11.6,4 11.5,4.1 L8.5,6.2 C8.3,6.4 8.2,6.7 8.4,7 L9.8,9 C10.1,9.4 10,9.9 9.7,10.3 C9.1,11 8.5,11.7 8,12.5 C7.7,12.9 7.3,13.1 6.8,12.9 L4.5,12.1 C4.4,12.1 4.2,12.1 4.1,12.1 C4,12.1 3.9,12.3 3.8,12.4 L2.5,15.9 C2.4,16 2.5,16.2 2.5,16.3 C2.6,16.4 2.7,16.5 2.8,16.6 L5.1,17.4 C5.5,17.6 5.8,18 5.7,18.5 C5.6,19.2 5.6,19.9 5.6,20.6 C5.6,20.8 5.6,21.1 5.6,21.3 C5.6,21.8 5.3,22.2 4.9,22.3 L2.6,22.9 C2.5,22.9 2.3,23 2.3,23.2 C2.2,23.3 2.2,23.5 2.2,23.6 L3.2,27.2 C3.3,27.5 3.6,27.7 3.9,27.6 L6.2,27 C6.7,26.9 7.1,27.1 7.3,27.5 C7.7,28.3 8.2,29.1 8.8,29.9 C9.1,30.3 9.1,30.8 8.8,31.2 L7.2,33.1 C7.1,33.2 7.1,33.4 7.1,33.5 C7.1,33.6 7.2,33.8 7.3,33.9 L10.1,36.3 C10.3,36.5 10.7,36.5 10.9,36.2 L12.5,34.4 C12.6,34.2 12.9,34 13.2,34 Z" id="Shape" fill="#8B5E3C"></path>
                    <path d="M34.4,18.4 L25.4,18.4 C24.8,18.4 24.4,18 24.4,17.4 C24.4,16.8 24.8,16.4 25.4,16.4 L34.4,16.4 C35,16.4 35.4,16.8 35.4,17.4 C35.4,17.9 34.9,18.4 34.4,18.4 Z" id="Path" fill="#8B5E3C"></path>
                    <path d="M30.6,21.8 L26.7,21.8 C26.1,21.8 25.7,21.4 25.7,20.8 C25.7,20.2 26.1,19.8 26.7,19.8 L30.6,19.8 C31.2,19.8 31.6,20.2 31.6,20.8 C31.6,21.4 31.2,21.8 30.6,21.8 Z" id="Path" fill="#8B5E3C"></path>
                    <path d="M29.9,25.2 L25.4,25.2 C24.8,25.2 24.4,24.8 24.4,24.2 C24.4,23.6 24.8,23.2 25.4,23.2 L29.9,23.2 C30.5,23.2 30.9,23.6 30.9,24.2 C30.9,24.8 30.4,25.2 29.9,25.2 Z" id="Path" fill="#8B5E3C"></path>
                    <path d="M20.7,27.2 C17.2,27.2 14.3,24.3 14.3,20.8 C14.3,17.3 17.2,14.4 20.7,14.4 C24.2,14.4 27.1,17.3 27.1,20.8 C27.1,24.3 24.2,27.2 20.7,27.2 Z M20.7,16.4 C18.3,16.4 16.3,18.4 16.3,20.8 C16.3,23.2 18.3,25.2 20.7,25.2 C23.1,25.2 25.1,23.2 25.1,20.8 C25.1,18.4 23.1,16.4 20.7,16.4 Z" id="Shape" fill="#8B5E3C"></path>
                </g>
            </g>
        </g>
    </g>
</svg>