<?xml version="1.0" encoding="UTF-8"?>
<svg width="106px" height="85px" viewBox="0 0 106 85" version="1.1" xmlns="http://www.w3.org/2000/svg" xmlns:xlink="http://www.w3.org/1999/xlink">
    <title>Group</title>
    <g id="Page-1" stroke="none" stroke-width="1" fill="none" fill-rule="evenodd">
        <g id="1816980" transform="translate(-105.300000, -6.700000)" fill-rule="nonzero">
            <g id="Group" transform="translate(105.800000, 7.600000)">
                <path d="M41.9,83.8 C18.8,83.8 0,65 0,41.9 C0,18.8 18.8,7.10542736e-15 41.9,7.10542736e-15 C65,7.10542736e-15 83.8,18.8 83.8,41.9 C83.7,65 64.9,83.8 41.9,83.8 Z M41.9,6.8 C22.6,6.8 6.8,22.5 6.8,41.9 C6.8,61.3 22.5,77 41.9,77 C61.2,77 77,61.3 77,41.9 C77,22.5 61.2,6.8 41.9,6.8 Z" id="Shape" fill="#E22D3A"></path>
                <path d="M41.9,67 C28.1,67 16.8,55.8 16.8,41.9 C16.8,28.1 28,16.8 41.9,16.8 C55.7,16.8 67,28 67,41.9 C66.9,55.7 55.7,67 41.9,67 Z M41.9,23.5 C31.7,23.5 23.5,31.8 23.5,41.9 C23.5,52.1 31.8,60.3 41.9,60.3 C52.1,60.3 60.3,52 60.3,41.9 C60.3,31.7 52,23.5 41.9,23.5 Z" id="Shape" fill="#58595B"></path>
                <circle id="Oval" fill="#E22D3A" cx="41.9" cy="41.9" r="8.3"></circle>
                <path d="M104.5,17.4 C104.2,14.7 102.4,12.5 99.9,11.7 L97.9,11 L98.4,8.9 C99.2,5.4 97.2,1.8 93.7,0.9 C92,0.4 90.2,0.6 88.6,1.5 L80.3,6.1 C78.6,7 77.4,8.7 77,10.5 L75.8,16 L56.9,26.6 L55.8,24.7 C54.9,23.1 53.5,22 51.8,21.5 C48.4,20.5 44.9,22.3 43.7,25.6 L39.1,38 C38.4,39.8 38.6,41.7 39.4,43.4 C40.3,45.1 41.8,46.3 43.6,46.8 C43.8,46.9 44,46.9 44.1,46.9 L57.1,49.4 C57.5,49.5 58,49.5 58.4,49.5 C60.6,49.5 62.5,48.5 63.8,46.7 C65.4,44.5 65.5,41.8 64.2,39.5 L63.2,37.7 L82.1,27.1 L87.4,28.9 C87.5,28.9 87.7,29 87.8,29 C89.5,29.5 91.3,29.3 92.9,28.4 L101.2,23.8 C103.5,22.6 104.8,20 104.5,17.4 Z M89.5,22.7 L83,20.4 C82.9,20.4 82.9,20.4 82.8,20.3 C82.3,20.2 81.8,20.1 81.3,20.2 C81.7,19.8 81.9,19.2 82.1,18.7 L83.6,11.9 L91.9,7.2 C92,7.2 92,7.3 92,7.3 L90.9,12.1 C90.5,13.9 91.5,15.8 93.3,16.4 L98,17.9 L98,18 L89.5,22.7 C89.6,22.7 89.5,22.7 89.5,22.7 Z M50,27.9 L52.6,32.5 C53.1,33.3 53.9,34 54.8,34.2 C55.3,34.3 55.8,34.4 56.3,34.3 C56,34.7 55.7,35.1 55.6,35.6 C55.3,36.5 55.5,37.5 55.9,38.4 L58.4,42.8 L58.8,42.6 L58.3,42.9 L45.3,40.3 L49.9,27.9 L49.5,27.7 L50,27.9 Z" id="Shape" fill="#FFFFFF"></path>
                <path d="M58.3,47.7 C58,47.7 57.7,47.7 57.4,47.6 L44.4,45.1 C44.3,45.1 44.1,45 44,45 C42.7,44.6 41.6,43.7 41,42.5 C40.4,41.3 40.3,39.9 40.8,38.6 L45.4,26.2 C46.3,23.8 48.8,22.5 51.3,23.2 C52.5,23.5 53.6,24.4 54.2,25.5 L56.2,29.1 L77.5,17.1 L78.9,10.8 C79.2,9.4 80.1,8.3 81.3,7.6 L89.5,3.1 C90.6,2.5 91.9,2.3 93.2,2.7 C95.7,3.4 97.2,5.9 96.6,8.5 L95.7,12.3 L99.4,13.5 C101.3,14.1 102.5,15.7 102.7,17.6 C102.9,19.5 102,21.3 100.3,22.3 L92,26.9 C90.9,27.5 89.6,27.7 88.3,27.3 C88.2,27.3 88.1,27.2 88,27.2 L88,27.2 C88,27.2 83.4,25.6 81.9,25.1 L60.6,37.1 L62.5,40.5 C63.4,42.2 63.3,44.2 62.2,45.7 C61.3,47 59.8,47.7 58.3,47.7 Z M49.9,26 C49.1,26 48.4,26.5 48.1,27.3 L43.5,39.7 C43.3,40.2 43.3,40.8 43.6,41.3 C43.8,41.8 44.3,42.2 44.8,42.3 C44.8,42.3 44.8,42.3 44.8,42.3 C44.9,42.3 44.9,42.3 45,42.3 L58,44.8 C58.8,44.9 59.5,44.7 60,44 C60.5,43.4 60.5,42.6 60.1,41.9 L57.6,37.5 C57.4,37.1 57.3,36.6 57.4,36.2 C57.5,35.7 57.8,35.4 58.2,35.1 L80.9,22.3 C81.3,22.1 81.8,22 82.2,22.1 L82.2,22.1 C82.7,22.3 84.2,22.8 88.9,24.4 L89,24.4 C89.5,24.5 90,24.5 90.5,24.2 L98.8,19.5 C99.5,19.1 99.9,18.4 99.8,17.6 C99.7,16.8 99.2,16.2 98.5,15.9 L93.8,14.4 C92.9,14.1 92.4,13.2 92.6,12.3 L93.7,7.5 C93.9,6.5 93.3,5.4 92.3,5.2 C91.8,5.1 91.3,5.1 90.8,5.4 L82.5,10 C82,10.3 81.7,10.7 81.5,11.3 L80,18.1 C79.9,18.6 79.6,19 79.2,19.2 L56.5,32 C56.1,32.2 55.6,32.3 55.2,32.2 C54.8,32.1 54.4,31.8 54.2,31.4 L51.6,26.8 C51.3,26.3 50.9,26 50.4,25.9 C50.3,26 50.1,26 49.9,26 Z" id="Shape" fill="#58595B"></path>
                <g transform="translate(82.187321, 3.487321)" fill="#58595B" id="Path">
                    <path d="M1.51267927,14.1126793 C1.41267927,14.1126793 1.31267927,14.1126793 1.21267927,14.1126793 C0.412679274,14.0126793 -0.0873207259,13.2126793 0.0126792741,12.4126793 L1.61267927,3.91267927 C1.71267927,3.11267927 2.51267927,2.61267927 3.31267927,2.71267927 C4.11267927,2.81267927 4.61267927,3.61267927 4.51267927,4.41267927 L2.91267927,12.9126793 C2.81267927,13.6126793 2.21267927,14.1126793 1.51267927,14.1126793 Z"></path>
                    <path d="M6.61267927,11.4126793 C6.51267927,11.4126793 6.41267927,11.4126793 6.31267927,11.4126793 C5.51267927,11.3126793 5.01267927,10.5126793 5.11267927,9.71267927 L6.71267927,1.21267927 C6.81267927,0.412679274 7.61267927,-0.0873207259 8.41267927,0.0126792741 C9.21267927,0.112679274 9.71267927,0.912679274 9.61267927,1.71267927 L8.01267927,10.2126793 C7.91267927,10.9126793 7.31267927,11.4126793 6.61267927,11.4126793 Z"></path>
                    <path d="M13.8126793,20.0126793 C13.6126793,20.0126793 13.3126793,19.9126793 13.1126793,19.8126793 L5.51267927,15.7126793 C4.81267927,15.3126793 4.51267927,14.5126793 4.91267927,13.8126793 C5.31267927,13.1126793 6.11267927,12.8126793 6.81267927,13.2126793 L14.4126793,17.3126793 C15.1126793,17.7126793 15.4126793,18.5126793 15.0126793,19.2126793 C14.8126793,19.7126793 14.3126793,20.0126793 13.8126793,20.0126793 Z"></path>
                </g>
            </g>
        </g>
    </g>
</svg>